<mxfile host="app.diagrams.net" agent="Mozilla/5.0 (Windows NT 10.0; Win64; x64) AppleWebKit/537.36 (KHTML, like Gecko) Chrome/136.0.0.0 Safari/537.36" version="27.0.6">
  <diagram name="Page-1" id="IwtC2SziaWkAfvdwJxES">
    <mxGraphModel dx="1895" dy="2200" grid="0" gridSize="10" guides="1" tooltips="1" connect="1" arrows="1" fold="1" page="1" pageScale="1" pageWidth="827" pageHeight="1169" background="light-dark(#FFFFFF,#FFF2F2)" math="0" shadow="0">
      <root>
        <mxCell id="0" />
        <mxCell id="1" parent="0" />
        <mxCell id="I94758jBo5aB8Bnb-6EB-1" value="" style="endArrow=block;endSize=10;endFill=0;shadow=0;strokeWidth=1;rounded=0;curved=0;edgeStyle=elbowEdgeStyle;elbow=vertical;" edge="1" parent="1">
          <mxGeometry width="160" relative="1" as="geometry">
            <mxPoint x="200" y="360" as="sourcePoint" />
            <mxPoint x="300" y="258" as="targetPoint" />
          </mxGeometry>
        </mxCell>
        <mxCell id="I94758jBo5aB8Bnb-6EB-2" value="" style="endArrow=block;endSize=10;endFill=0;shadow=0;strokeWidth=1;rounded=0;curved=0;edgeStyle=elbowEdgeStyle;elbow=vertical;" edge="1" parent="1">
          <mxGeometry width="160" relative="1" as="geometry">
            <mxPoint x="410" y="360" as="sourcePoint" />
            <mxPoint x="300" y="258" as="targetPoint" />
          </mxGeometry>
        </mxCell>
        <mxCell id="I94758jBo5aB8Bnb-6EB-3" value="" style="endArrow=open;shadow=0;strokeWidth=1;rounded=0;curved=0;endFill=1;edgeStyle=elbowEdgeStyle;elbow=vertical;" edge="1" parent="1">
          <mxGeometry x="0.5" y="41" relative="1" as="geometry">
            <mxPoint x="380" y="189" as="sourcePoint" />
            <mxPoint x="508" y="189" as="targetPoint" />
            <mxPoint x="-40" y="32" as="offset" />
          </mxGeometry>
        </mxCell>
        <mxCell id="I94758jBo5aB8Bnb-6EB-4" value="0..1" style="resizable=0;align=left;verticalAlign=bottom;labelBackgroundColor=none;fontSize=12;" connectable="0" vertex="1" parent="I94758jBo5aB8Bnb-6EB-3">
          <mxGeometry x="-1" relative="1" as="geometry">
            <mxPoint y="4" as="offset" />
          </mxGeometry>
        </mxCell>
        <mxCell id="I94758jBo5aB8Bnb-6EB-5" value="1" style="resizable=0;align=right;verticalAlign=bottom;labelBackgroundColor=none;fontSize=12;" connectable="0" vertex="1" parent="I94758jBo5aB8Bnb-6EB-3">
          <mxGeometry x="1" relative="1" as="geometry">
            <mxPoint x="-7" y="4" as="offset" />
          </mxGeometry>
        </mxCell>
        <mxCell id="I94758jBo5aB8Bnb-6EB-6" value="lives at" style="text;html=1;resizable=0;points=[];;align=center;verticalAlign=middle;labelBackgroundColor=none;rounded=0;shadow=0;strokeWidth=1;fontSize=12;" vertex="1" connectable="0" parent="I94758jBo5aB8Bnb-6EB-3">
          <mxGeometry x="0.5" y="49" relative="1" as="geometry">
            <mxPoint x="-38" y="40" as="offset" />
          </mxGeometry>
        </mxCell>
        <mxCell id="I94758jBo5aB8Bnb-6EB-7" value="" style="rounded=1;whiteSpace=wrap;html=1;strokeColor=light-dark(#000000,#060606);fillColor=light-dark(#FFFFFF,#F5F5F5);" vertex="1" parent="1">
          <mxGeometry x="21" y="107" width="791" height="171" as="geometry" />
        </mxCell>
        <mxCell id="I94758jBo5aB8Bnb-6EB-8" value="&lt;font style=&quot;color: light-dark(rgb(0, 0, 0), rgb(0, 0, 0)); font-size: 21px;&quot;&gt;Logo img&lt;/font&gt;" style="text;html=1;align=center;verticalAlign=middle;whiteSpace=wrap;rounded=0;strokeWidth=11;fillColor=none;" vertex="1" parent="1">
          <mxGeometry x="235" y="133" width="348" height="130" as="geometry" />
        </mxCell>
        <mxCell id="I94758jBo5aB8Bnb-6EB-9" value="" style="rounded=1;whiteSpace=wrap;html=1;fillColor=none;strokeColor=light-dark(#000000,#000000);" vertex="1" parent="1">
          <mxGeometry x="43.5" y="230" width="746" height="44" as="geometry" />
        </mxCell>
        <mxCell id="I94758jBo5aB8Bnb-6EB-10" value="" style="ellipse;whiteSpace=wrap;html=1;fillColor=none;strokeColor=light-dark(#000000,#080808);" vertex="1" parent="1">
          <mxGeometry x="182" y="239.25" width="117" height="25.5" as="geometry" />
        </mxCell>
        <mxCell id="I94758jBo5aB8Bnb-6EB-11" value="" style="ellipse;whiteSpace=wrap;html=1;fillColor=none;strokeColor=light-dark(#000000,#080808);" vertex="1" parent="1">
          <mxGeometry x="426" y="239.25" width="117" height="25.5" as="geometry" />
        </mxCell>
        <mxCell id="I94758jBo5aB8Bnb-6EB-12" value="" style="ellipse;whiteSpace=wrap;html=1;fillColor=light-dark(#FFFFFF,#FFFF99);strokeColor=light-dark(#000000,#080808);" vertex="1" parent="1">
          <mxGeometry x="306" y="239.25" width="117" height="25.5" as="geometry" />
        </mxCell>
        <mxCell id="I94758jBo5aB8Bnb-6EB-13" value="" style="ellipse;whiteSpace=wrap;html=1;fillColor=none;strokeColor=light-dark(#000000,#080808);" vertex="1" parent="1">
          <mxGeometry x="690" y="239.25" width="95" height="25.5" as="geometry" />
        </mxCell>
        <mxCell id="I94758jBo5aB8Bnb-6EB-14" value="&lt;font style=&quot;color: light-dark(rgb(0, 0, 0), rgb(0, 0, 0));&quot;&gt;catalogo&lt;/font&gt;" style="text;html=1;align=center;verticalAlign=middle;whiteSpace=wrap;rounded=0;fillColor=none;" vertex="1" parent="1">
          <mxGeometry x="337" y="234.75" width="60" height="30" as="geometry" />
        </mxCell>
        <mxCell id="I94758jBo5aB8Bnb-6EB-15" value="&lt;font style=&quot;color: light-dark(rgb(0, 0, 0), rgb(0, 0, 0));&quot;&gt;home&lt;/font&gt;" style="text;html=1;align=center;verticalAlign=middle;whiteSpace=wrap;rounded=0;" vertex="1" parent="1">
          <mxGeometry x="210.5" y="233" width="60" height="30" as="geometry" />
        </mxCell>
        <mxCell id="I94758jBo5aB8Bnb-6EB-16" value="&lt;font style=&quot;color: light-dark(rgb(0, 0, 0), rgb(0, 0, 0));&quot;&gt;autori&lt;/font&gt;" style="text;html=1;align=center;verticalAlign=middle;whiteSpace=wrap;rounded=0;" vertex="1" parent="1">
          <mxGeometry x="454.5" y="237" width="60" height="30" as="geometry" />
        </mxCell>
        <mxCell id="I94758jBo5aB8Bnb-6EB-17" value="&lt;font style=&quot;color: light-dark(rgb(0, 0, 0), rgb(0, 0, 0));&quot;&gt;login&lt;/font&gt;" style="text;html=1;align=center;verticalAlign=middle;whiteSpace=wrap;rounded=0;" vertex="1" parent="1">
          <mxGeometry x="707.5" y="234.75" width="60" height="30" as="geometry" />
        </mxCell>
        <mxCell id="I94758jBo5aB8Bnb-6EB-18" style="edgeStyle=orthogonalEdgeStyle;rounded=0;orthogonalLoop=1;jettySize=auto;html=1;exitX=0.75;exitY=1;exitDx=0;exitDy=0;entryX=1;entryY=0.75;entryDx=0;entryDy=0;" edge="1" parent="1" source="I94758jBo5aB8Bnb-6EB-19" target="I94758jBo5aB8Bnb-6EB-20">
          <mxGeometry relative="1" as="geometry" />
        </mxCell>
        <mxCell id="I94758jBo5aB8Bnb-6EB-19" value="" style="rounded=1;whiteSpace=wrap;html=1;fillColor=none;strokeColor=light-dark(#000000,#000000);" vertex="1" parent="1">
          <mxGeometry x="43.5" y="284" width="120" height="30" as="geometry" />
        </mxCell>
        <mxCell id="I94758jBo5aB8Bnb-6EB-20" value="&lt;font style=&quot;color: light-dark(rgb(0, 0, 0), rgb(0, 0, 0));&quot;&gt;button&lt;/font&gt;" style="text;html=1;align=center;verticalAlign=middle;whiteSpace=wrap;rounded=0;" vertex="1" parent="1">
          <mxGeometry x="71" y="284" width="60" height="30" as="geometry" />
        </mxCell>
        <mxCell id="I94758jBo5aB8Bnb-6EB-22" style="edgeStyle=orthogonalEdgeStyle;rounded=0;orthogonalLoop=1;jettySize=auto;html=1;exitX=0.5;exitY=1;exitDx=0;exitDy=0;" edge="1" parent="1" source="I94758jBo5aB8Bnb-6EB-28">
          <mxGeometry relative="1" as="geometry">
            <mxPoint x="413" y="502" as="sourcePoint" />
            <mxPoint x="416.5" y="-50" as="targetPoint" />
          </mxGeometry>
        </mxCell>
        <mxCell id="I94758jBo5aB8Bnb-6EB-23" value="" style="rounded=1;whiteSpace=wrap;html=1;fillColor=none;strokeColor=light-dark(#000000,#000000);" vertex="1" parent="1">
          <mxGeometry x="50" y="933" width="710" height="108" as="geometry" />
        </mxCell>
        <mxCell id="I94758jBo5aB8Bnb-6EB-24" value="&lt;font style=&quot;color: light-dark(rgb(0, 0, 0), rgb(0, 0, 0));&quot;&gt;Footer&lt;/font&gt;" style="text;html=1;align=center;verticalAlign=middle;whiteSpace=wrap;rounded=0;" vertex="1" parent="1">
          <mxGeometry x="379" y="972" width="60" height="30" as="geometry" />
        </mxCell>
        <mxCell id="I94758jBo5aB8Bnb-6EB-41" style="edgeStyle=orthogonalEdgeStyle;rounded=0;orthogonalLoop=1;jettySize=auto;html=1;exitX=0.5;exitY=1;exitDx=0;exitDy=0;" edge="1" parent="1" source="I94758jBo5aB8Bnb-6EB-25" target="I94758jBo5aB8Bnb-6EB-26">
          <mxGeometry relative="1" as="geometry" />
        </mxCell>
        <mxCell id="I94758jBo5aB8Bnb-6EB-25" value="&lt;font style=&quot;color: light-dark(rgb(0, 0, 0), rgb(0, 0, 0)); font-size: 22px;&quot;&gt;Header&lt;/font&gt;" style="text;html=1;align=center;verticalAlign=middle;whiteSpace=wrap;rounded=0;" vertex="1" parent="1">
          <mxGeometry x="383" y="115" width="60" height="30" as="geometry" />
        </mxCell>
        <mxCell id="I94758jBo5aB8Bnb-6EB-27" value="&lt;font style=&quot;color: light-dark(rgb(0, 0, 0), rgb(0, 0, 0));&quot;&gt;NAVBAR&lt;/font&gt;" style="text;html=1;align=center;verticalAlign=middle;whiteSpace=wrap;rounded=0;" vertex="1" parent="1">
          <mxGeometry x="66" y="237" width="60" height="30" as="geometry" />
        </mxCell>
        <mxCell id="I94758jBo5aB8Bnb-6EB-29" value="" style="rounded=1;whiteSpace=wrap;html=1;fillColor=none;strokeColor=light-dark(#000000,#000000);" vertex="1" parent="1">
          <mxGeometry x="60" y="324" width="304" height="330" as="geometry" />
        </mxCell>
        <mxCell id="I94758jBo5aB8Bnb-6EB-30" value="" style="rounded=1;whiteSpace=wrap;html=1;fillColor=none;strokeColor=light-dark(#000000,#000000);" vertex="1" parent="1">
          <mxGeometry x="583" y="329" width="198" height="289" as="geometry" />
        </mxCell>
        <mxCell id="I94758jBo5aB8Bnb-6EB-31" value="&lt;font style=&quot;color: light-dark(rgb(0, 0, 0), rgb(0, 0, 0));&quot;&gt;box1&lt;/font&gt;" style="text;html=1;align=center;verticalAlign=middle;whiteSpace=wrap;rounded=0;" vertex="1" parent="1">
          <mxGeometry x="183" y="513" width="60" height="30" as="geometry" />
        </mxCell>
        <mxCell id="I94758jBo5aB8Bnb-6EB-32" value="&lt;font style=&quot;color: light-dark(rgb(0, 0, 0), rgb(0, 0, 0));&quot;&gt;scroll-box&lt;/font&gt;" style="text;html=1;align=center;verticalAlign=middle;whiteSpace=wrap;rounded=0;" vertex="1" parent="1">
          <mxGeometry x="655" y="432" width="60" height="30" as="geometry" />
        </mxCell>
        <mxCell id="I94758jBo5aB8Bnb-6EB-33" value="" style="rounded=1;whiteSpace=wrap;html=1;fillColor=none;strokeColor=light-dark(#000000,#000000);" vertex="1" parent="1">
          <mxGeometry x="377" y="329" width="198" height="203" as="geometry" />
        </mxCell>
        <mxCell id="I94758jBo5aB8Bnb-6EB-34" value="&lt;font style=&quot;color: light-dark(rgb(0, 0, 0), rgb(0, 0, 0));&quot;&gt;box2&lt;/font&gt;" style="text;html=1;align=center;verticalAlign=middle;whiteSpace=wrap;rounded=0;" vertex="1" parent="1">
          <mxGeometry x="443" y="440" width="60" height="30" as="geometry" />
        </mxCell>
        <mxCell id="I94758jBo5aB8Bnb-6EB-35" value="" style="shape=flexArrow;endArrow=classic;startArrow=classic;html=1;rounded=0;exitX=0.98;exitY=0.976;exitDx=0;exitDy=0;exitPerimeter=0;strokeColor=light-dark(#000000,#000000);" edge="1" parent="1">
          <mxGeometry width="100" height="100" relative="1" as="geometry">
            <mxPoint x="763.04" y="616.0639999999999" as="sourcePoint" />
            <mxPoint x="763" y="402" as="targetPoint" />
          </mxGeometry>
        </mxCell>
        <mxCell id="I94758jBo5aB8Bnb-6EB-36" value="" style="rounded=1;whiteSpace=wrap;html=1;fillColor=none;strokeColor=light-dark(#000000,#000000);" vertex="1" parent="1">
          <mxGeometry x="55" y="666" width="304" height="129" as="geometry" />
        </mxCell>
        <mxCell id="I94758jBo5aB8Bnb-6EB-37" value="" style="rounded=1;whiteSpace=wrap;html=1;fillColor=none;strokeColor=light-dark(#000000,#000000);" vertex="1" parent="1">
          <mxGeometry x="50" y="798" width="304" height="126" as="geometry" />
        </mxCell>
        <mxCell id="I94758jBo5aB8Bnb-6EB-38" value="&lt;font style=&quot;color: light-dark(rgb(0, 0, 0), rgb(0, 0, 0));&quot;&gt;box3&lt;/font&gt;" style="text;html=1;align=center;verticalAlign=middle;whiteSpace=wrap;rounded=0;" vertex="1" parent="1">
          <mxGeometry x="168" y="715.5" width="60" height="30" as="geometry" />
        </mxCell>
        <mxCell id="I94758jBo5aB8Bnb-6EB-43" style="edgeStyle=orthogonalEdgeStyle;rounded=0;orthogonalLoop=1;jettySize=auto;html=1;" edge="1" parent="1" source="I94758jBo5aB8Bnb-6EB-39" target="I94758jBo5aB8Bnb-6EB-36">
          <mxGeometry relative="1" as="geometry" />
        </mxCell>
        <mxCell id="I94758jBo5aB8Bnb-6EB-39" value="&lt;font style=&quot;color: light-dark(rgb(0, 0, 0), rgb(0, 0, 0));&quot;&gt;box4&lt;/font&gt;" style="text;html=1;align=center;verticalAlign=middle;whiteSpace=wrap;rounded=0;" vertex="1" parent="1">
          <mxGeometry x="168" y="855" width="60" height="30" as="geometry" />
        </mxCell>
        <mxCell id="I94758jBo5aB8Bnb-6EB-40" value="" style="edgeStyle=orthogonalEdgeStyle;rounded=0;orthogonalLoop=1;jettySize=auto;html=1;exitX=0.5;exitY=1;exitDx=0;exitDy=0;" edge="1" parent="1" target="I94758jBo5aB8Bnb-6EB-26">
          <mxGeometry relative="1" as="geometry">
            <mxPoint x="413" y="502" as="sourcePoint" />
            <mxPoint x="416.5" y="-50" as="targetPoint" />
          </mxGeometry>
        </mxCell>
        <mxCell id="I94758jBo5aB8Bnb-6EB-26" value="" style="ellipse;whiteSpace=wrap;html=1;fillColor=none;strokeColor=light-dark(#000000,#CCCC00);" vertex="1" parent="1">
          <mxGeometry x="349" y="160" width="120" height="64" as="geometry" />
        </mxCell>
        <mxCell id="I94758jBo5aB8Bnb-6EB-42" value="" style="edgeStyle=orthogonalEdgeStyle;rounded=0;orthogonalLoop=1;jettySize=auto;html=1;exitX=0.5;exitY=1;exitDx=0;exitDy=0;" edge="1" parent="1" source="I94758jBo5aB8Bnb-6EB-26" target="I94758jBo5aB8Bnb-6EB-28">
          <mxGeometry relative="1" as="geometry">
            <mxPoint x="400" y="185" as="sourcePoint" />
            <mxPoint x="416.5" y="-50" as="targetPoint" />
          </mxGeometry>
        </mxCell>
        <mxCell id="I94758jBo5aB8Bnb-6EB-28" value="&lt;font style=&quot;color: light-dark(rgb(0, 0, 0), rgb(0, 0, 0));&quot;&gt;body web-page&lt;/font&gt;" style="text;html=1;align=center;verticalAlign=middle;whiteSpace=wrap;rounded=0;" vertex="1" parent="1">
          <mxGeometry x="365" y="77" width="97" height="30" as="geometry" />
        </mxCell>
      </root>
    </mxGraphModel>
  </diagram>
</mxfile>
